HIERARCHY
ROOT Hips
{
	OFFSET 0.00000 0.00000 0.00000
	CHANNELS 6 Xposition Yposition Zposition Yrotation Zrotation Xrotation 
	JOINT Lumbar
	{
		OFFSET 0 0 0
		CHANNELS 3 Zrotation Xrotation Yrotation
		JOINT Neck
		{
			OFFSET 0.00 0.2701 0.00
			CHANNELS 3 Zrotation Xrotation Yrotation
			End Site
			{
				OFFSET 0.00 0.1379 0.00
			}
		}
		JOINT RightShoulder
		{
			OFFSET 0.0119 0.2289 0.1181
			CHANNELS 3 Zrotation Xrotation Yrotation
			JOINT RightElbow
			{
				OFFSET 0.00 -0.1475 0.00
				CHANNELS 2 Zrotation Yrotation
				JOINT RightWrist
				{
					OFFSET 0.00 -0.1605 0.00
					CHANNELS 2 Zrotation Xrotation
					End Site
					{
						OFFSET 0.0040 -0.1068 0.0006
					}
				}
			}
		}
		JOINT LeftShoulder
		{
			OFFSET 0.0119 0.2289 -0.1181
			CHANNELS 3 Zrotation Xrotation Yrotation
			JOINT LeftElbow
			{
				OFFSET 0.00 -0.1475 0.00
				CHANNELS 2 Zrotation Yrotation
				JOINT LeftWrist
				{
					OFFSET 0.00 -0.1605 0.00
					CHANNELS 2 Zrotation Xrotation
					End Site
					{
						OFFSET 0.0040 -0.1068 -0.0006
					}
				}
			}
		}
	}
	JOINT RightHip
	{
		OFFSET 0.0316 -0.0424 0.0458
		CHANNELS 3 Zrotation Xrotation Yrotation
		JOINT RightKnee
		{
			OFFSET 0.00 -0.2438 0.00
			CHANNELS 1 Zrotation
			JOINT RightAnkle
			{
				OFFSET 0.00 -0.2449 0.00
				CHANNELS 3 Zrotation Xrotation Yrotation
				End Site
				{
					OFFSET 0.1237 -0.0542 0.0051
				}
			}
		}
	}
	JOINT LeftHip
	{
		OFFSET 0.0316 -0.0424 -0.0458
		CHANNELS 3 Zrotation Xrotation Yrotation
		JOINT LeftKnee
		{
			OFFSET 0.00 -0.2438 0.00
			CHANNELS 1 Zrotation
			JOINT LeftAnkle
			{
				OFFSET 0.00 -0.2449 0.00
				CHANNELS 3 Zrotation Xrotation Yrotation
				End Site
				{
					OFFSET 0.1237 -0.0542 -0.0051
				}
			}
		}
	}
}
MOTION
Frames: 25
Frame Time: 0.02
-0.2207 0.57874 -0.03338 222.25848 0 -1.95157 -7.21376 9.01712 -5.00076 -50.74268 -2.8801 -0.9582 49.2823 -16.06951 -2.70117 12.48018 84.54981 -4.59647 -4.27345 50.24227 21.64699 -25.90058 20.85362 -79.94355 -12.01366 2.83411 1.30742 8.64915 -2.97705 -5.19993 -3.2199 -2.62567 -8.82025 15.04492 10.16327 -1.94497 -33.94025 6.25805 0.42243 -2.25481
-0.22145 0.57865 -0.03353 222.05424 0 -1.97308 -7.29895 9.13367 -5.06151 -50.66889 -2.81338 -0.91403 49.12046 -16.10153 -2.52554 12.47321 84.43037 -4.48542 -4.24715 50.20991 21.66938 -25.93925 20.92273 -80.02153 -12.0397 2.83527 1.23812 8.72837 -3.19538 -5.12719 -3.22453 -2.62685 -8.46883 14.44135 10.13703 -2.25521 -31.66409 6.33884 0.4026 -2.31607
-0.22212 0.57856 -0.03353 221.79947 0 -2.00543 -7.39124 9.23547 -5.117 -50.61874 -2.74897 -0.83995 49.08694 -16.13221 -2.12301 12.51529 84.35043 -4.35395 -4.26371 50.2076 21.6753 -25.99301 20.98581 -80.11347 -12.05757 2.84108 1.14563 8.79693 -3.63114 -5.01403 -3.24082 -2.62239 -7.86349 13.75155 10.09048 -2.78494 -29.14029 6.37417 0.33232 -2.52926
-0.22283 0.57847 -0.03359 221.56103 0 -2.03615 -7.48001 9.3442 -5.17244 -50.55696 -2.68527 -0.77942 48.99794 -16.16014 -1.81224 12.54547 84.25645 -4.24177 -4.26586 50.1894 21.6892 -26.0323 21.05143 -80.19446 -12.08147 2.84486 1.06592 8.87277 -3.94415 -4.92369 -3.25139 -2.61935 -7.39045 13.09808 10.05369 -3.19577 -26.73832 6.42288 0.28339 -2.67598
-0.22355 0.57839 -0.03369 221.34734 0 -2.05382 -7.57089 9.45244 -5.23627 -50.49699 -2.61513 -0.71839 48.89606 -16.20196 -1.54213 12.53563 84.14903 -4.08935 -4.24837 50.17854 21.70134 -26.10104 21.11898 -80.29455 -12.0968 2.84849 0.97999 8.93866 -4.35232 -4.82019 -3.26264 -2.62107 -6.85001 12.44961 10.01477 -3.68933 -24.27561 6.50318 0.23925 -2.81728
-0.22421 0.57829 -0.03367 221.07178 0 -2.10076 -7.65881 9.55773 -5.28243 -50.43946 -2.55809 -0.65151 48.85247 -16.21496 -1.13601 12.61939 84.07705 -4.01485 -4.28169 50.16055 21.71278 -26.11408 21.18031 -80.35865 -12.12718 2.85336 0.90069 9.02239 -4.61495 -4.73307 -3.2757 -2.61208 -6.3897 11.7749 9.97577 -4.06407 -21.89523 6.50631 0.17492 -3.00164
-0.22473 0.57809 -0.03334 220.63183 0 -2.22756 -7.73572 9.66205 -5.2767 -50.38476 -2.5428 -0.57642 48.93048 -16.14473 -0.41264 12.94874 84.10305 -4.16386 -4.43978 50.11285 21.73055 -25.95679 21.23045 -80.31562 -12.20617 2.86179 0.84011 9.16041 -4.4388 -4.69218 -3.29037 -2.56818 -6.19209 11.02499 9.9372 -4.03004 -19.72511 6.31104 0.05391 -3.29583
-0.22519 0.57787 -0.0329 220.13256 0 -2.38294 -7.80946 9.76317 -5.2542 -50.33171 -2.53957 -0.49647 49.06418 -16.04623 0.43918 13.37017 84.16156 -4.39113 -4.64806 50.05773 21.74746 -25.74539 21.27375 -80.23664 -12.29966 2.87111 0.78751 9.31612 -4.1074 -4.67 -3.30662 -2.51468 -6.08605 10.25695 9.89988 -3.87244 -17.6634 6.03947 -0.08327 -3.62282
-0.22566 0.57766 -0.0325 219.66512 0 -2.52412 -7.88524 9.86349 -5.24269 -50.27689 -2.52645 -0.41844 49.17764 -15.96329 1.23301 13.74953 84.19797 -4.58009 -4.83642 50.00798 21.76189 -25.56764 21.31691 -80.17704 -12.38293 2.87907 0.73409 9.4623 -3.83649 -4.64406 -3.32271 -2.47013 -5.95198 9.51331 9.86488 -3.78956 -15.60447 5.79967 -0.20398 -3.91549
-0.22617 0.57744 -0.03212 219.17658 0 -2.6711 -7.95879 9.97312 -5.21754 -50.22689 -2.53123 -0.34059 49.27431 -15.86901 2.03348 14.13181 84.26526 -4.77987 -5.01444 49.95068 21.78759 -25.35282 21.37295 -80.10531 -12.48074 2.89094 0.66783 9.61502 -3.61253 -4.59644 -3.33713 -2.40679 -5.75547 8.69763 9.81743 -3.63952 -13.31503 5.56826 -0.3642 -4.29396
-0.2266 0.57725 -0.03168 218.71698 0 -2.81228 -8.03612 10.06243 -5.21592 -50.16728 -2.50257 -0.2616 49.41731 -15.79145 2.84738 14.52897 84.27729 -4.97607 -5.22493 49.90711 21.79017 -25.20132 21.40142 -80.04985 -12.55244 2.89517 0.6308 9.7577 -3.25487 -4.59938 -3.3549 -2.37943 -5.70943 8.02974 9.79594 -3.59278 -11.53707 5.30473 -0.4463 -4.50142
-0.22685 0.57712 -0.03116 218.36602 0 -2.93369 -8.12444 10.09971 -5.29201 -50.07799 -2.36994 -0.18068 49.67562 -15.76908 3.6678 14.9462 84.11454 -5.14255 -5.51592 49.90196 21.72608 -25.24498 21.34848 -80.05037 -12.54302 2.87495 0.66973 9.87492 -2.53226 -4.733 -3.38451 -2.46213 -6.09772 7.76789 9.85055 -3.8984 -11.1281 4.94678 -0.29953 -4.21133
-0.22702 0.57703 -0.03059 218.04404 0 -3.0477 -8.21657 10.11623 -5.39091 -49.97942 -2.20474 -0.09896 49.97774 -15.76432 4.49589 15.37456 83.89899 -5.30315 -5.8368 49.91099 21.63932 -25.35275 21.26934 -80.0681 -12.50782 2.84754 0.73828 9.98029 -1.68522 -4.9176 -3.41688 -2.57993 -6.62832 7.65738 9.93051 -4.30474 -11.23518 4.56401 -0.07496 -3.75035
-0.22722 0.57693 -0.03003 217.6995 0 -3.16279 -8.30719 10.14007 -5.47356 -49.88671 -2.06034 -0.01769 50.25854 -15.7499 5.31883 15.79676 83.71485 -5.46673 -6.14208 49.91423 21.56515 -25.42659 21.20685 -80.07629 -12.48814 2.82547 0.79543 10.08673 -0.91685 -5.08218 -3.44589 -2.67608 -7.06732 7.4819 9.99584 -4.63902 -11.11759 4.2087 0.10815 -3.37833
-0.22744 0.57681 -0.02952 217.39168 0 -3.28815 -8.39718 10.17229 -5.57993 -49.78694 -1.89158 0.06428 50.5475 -15.74074 6.15375 16.22743 83.49448 -5.63092 -6.45869 49.91443 21.48168 -25.51917 21.12422 -80.09015 -12.45316 2.79477 0.84478 10.21178 -0.05177 -5.23508 -3.48361 -2.79555 -7.62097 7.28837 10.07417 -5.07803 -10.95956 3.78201 0.31617 -2.96035
-0.22759 0.57674 -0.02889 217.01607 0 -3.39046 -8.48891 10.18272 -5.64318 -49.69993 -1.76499 0.14476 50.82889 -15.72613 6.96341 16.64115 83.34425 -5.79242 -6.75681 49.92447 21.41169 -25.58817 21.07722 -80.09719 -12.44341 2.78023 0.91652 10.2953 0.64192 -5.42292 -3.50411 -2.87541 -7.97103 7.17024 10.13164 -5.32702 -11.00999 3.49956 0.49132 -2.59646
-0.22753 0.57686 -0.02792 216.4374 0 -3.42671 -8.58891 10.13301 -5.57622 -49.64771 -1.7684 0.22222 51.07992 -15.68399 7.70333 17.01089 83.33205 -5.93852 -7.00786 49.95788 21.38897 -25.58079 21.13658 -80.07736 -12.51208 2.813 1.04956 10.26446 0.80989 -5.70563 -3.47383 -2.83307 -7.70178 7.2101 10.12343 -5.00526 -11.48429 3.61779 0.55379 -2.42896
-0.22739 0.57703 -0.02682 215.79135 0 -3.44059 -8.68974 10.06294 -5.46617 -49.60903 -1.81424 0.29796 51.32098 -15.63748 8.41598 17.3615 83.40276 -6.08311 -7.23698 50.00073 21.37977 -25.54697 21.23233 -80.05094 -12.60637 2.86214 1.20282 10.19252 0.80444 -6.01957 -3.42661 -2.75046 -7.22642 7.32331 10.09365 -4.49394 -12.15508 3.88293 0.58095 -2.32097
-0.22728 0.57717 -0.02577 215.18229 0 -3.46737 -8.78729 10.00563 -5.37964 -49.56611 -1.83697 0.37354 51.5659 -15.59834 9.1399 17.71696 83.48306 -6.23466 -7.46837 50.03965 21.36148 -25.52258 21.31053 -80.03023 -12.68738 2.90317 1.34239 10.1411 0.89204 -6.31206 -3.38877 -2.68911 -6.85965 7.41153 10.07504 -4.08338 -12.75183 4.08381 0.62649 -2.18172
-0.22718 0.57734 -0.02476 214.54763 0 -3.48257 -8.89715 9.9332 -5.27744 -49.51536 -1.87484 0.45288 51.81655 -15.53676 9.87119 18.08982 83.37077 -6.36113 -7.73299 50.07791 21.35488 -25.51111 21.39248 -79.99867 -12.77489 2.94668 1.50202 10.08189 0.92394 -6.63717 -3.34379 -2.61655 -6.43507 7.46928 10.05178 -3.61234 -13.30124 4.27391 0.6656 -2.05296
-0.22705 0.57747 -0.02362 213.9495 0 -3.51643 -8.98162 9.88719 -5.19712 -49.48353 -1.89156 0.52428 52.05067 -15.52103 10.57767 18.42084 83.66896 -6.53761 -7.92321 50.11911 21.32739 -25.46588 21.47513 -79.98787 -12.8547 2.98915 1.62427 10.02882 1.02908 -6.90085 -3.30976 -2.55725 -6.07986 7.60661 10.03247 -3.22373 -13.99043 4.52078 0.70779 -1.92041
-0.22686 0.57748 -0.0222 213.47206 0 -3.60961 -8.99483 9.92358 -5.18958 -49.50681 -1.84065 0.5713 52.2551 -15.62983 11.24674 18.64811 85.17545 -6.86868 -7.90936 50.17004 21.23968 -25.33149 21.55491 -80.03664 -12.91197 3.02355 1.63819 10.0069 1.37713 -6.98909 -3.30884 -2.54487 -5.96717 7.93879 10.03161 -3.08643 -15.00339 4.89694 0.7741 -1.74964
-0.22665 0.57745 -0.02066 213.03279 0 -3.72201 -8.98256 9.98654 -5.20509 -49.54756 -1.76708 0.61088 52.4404 -15.78537 11.88726 18.8324 87.0747 -7.24699 -7.82191 50.22268 21.13066 -25.16414 21.63352 -80.10635 -12.95989 3.05652 1.61366 9.99187 1.8043 -7.01382 -3.31974 -2.54691 -5.93017 8.34861 10.03496 -3.04318 -16.14952 5.32393 0.84276 -1.57676
-0.22643 0.57744 -0.01916 212.57391 0 -3.82405 -8.98262 10.03451 -5.20876 -49.57632 -1.70313 0.65584 52.62547 -15.92161 12.52464 19.0318 88.732 -7.59328 -7.77074 50.27205 21.03073 -25.01319 21.71013 -80.16595 -13.0088 3.09109 1.60666 9.97106 2.19612 -7.06619 -3.32602 -2.54199 -5.85792 8.72729 10.03466 -2.97019 -17.24229 5.72199 0.9057 -1.41382
-0.22625 0.57742 -0.01769 212.12289 0 -3.93191 -8.97974 10.09407 -5.21675 -49.62266 -1.64296 0.69254 52.84825 -16.0498 13.2287 19.24973 90.65998 -7.98461 -7.70719 50.33275 20.93291 -24.85549 21.79869 -80.22776 -13.07196 3.12258 1.60012 9.96001 2.58053 -7.12488 -3.3285 -2.53772 -5.78378 9.09305 10.04072 -2.8324 -18.3151 6.14894 0.98817 -1.21313
